<?xml version="1.0" encoding="utf-8"?>
<!-- Generator: Adobe Illustrator 27.8.1, SVG Export Plug-In . SVG Version: 6.00 Build 0)  -->
<svg version="1.1" id="Layer_1" xmlns="http://www.w3.org/2000/svg" xmlns:xlink="http://www.w3.org/1999/xlink" x="0px" y="0px"
	 viewBox="0 0 700 700" style="enable-background:new 0 0 700 700;" xml:space="preserve">
<style type="text/css">
	.st0{fill:#FFFFFF;}
	.st1{display:none;fill:#FFFFFF;}
	.st2{display:none;}
	.st3{display:inline;fill:#FFFFFF;}
</style>
<g>
	<g>
		<path class="st0" d="M350.1,14.9c-184.9,0-335.2,150.4-335.2,335.2s150.4,335.2,335.2,335.2c184.9,0,335.2-150.4,335.2-335.2
			S535,14.9,350.1,14.9z M350.1,659.9C179.3,659.9,40.4,521,40.4,350.2s139-309.7,309.7-309.7c170.8,0,309.7,138.9,309.7,309.7
			S520.9,659.9,350.1,659.9z"/>
	</g>
	<path class="st0" d="M350.1,144.3c-113.5,0-205.9,92.4-205.9,205.9s92.4,205.9,205.9,205.9S556,463.7,556,350.2
		S463.6,144.3,350.1,144.3z M350.1,543.3c-106.5,0-193.1-86.6-193.1-193.1s86.6-193.1,193.1-193.1s193.1,86.6,193.1,193.1
		S456.6,543.3,350.1,543.3z"/>
	<path class="st0" d="M350.1,170.9c-99,0-179.3,80.3-179.3,179.3c0,1.6,0.1,3.1,0.1,4.7c6.5-10.1,15.4-18.2,24.3-22.4
		c-5.5-20,11.9-27.4,30.7-24.6c18.1,2.6,32.6,12.8,46.8,21.5c18.6,11.3,43.4,30.4,65.8,16c-3.9,6-16,8-26,6.6
		c-11.9-1.7-21.2-8.1-30.7-13.4c-9.7-5.4-18.8-10.8-27.3-15.7c13.9,10.2,29.8,18.7,45.3,27.6c-6.5,0.1-11.5,1.9-15.4,5
		c-13-7.6-25.3-15.8-37.5-24c10,8.3,23.1,17.5,36.1,24.7c-3.4,3.8-6.4,8.2-6.7,15.3c-5.4-4.4-10.9-9.8-16.9-14.8
		c-5.9-4.9-12.1-9.7-18.3-14.1c10.7,9.7,25.1,19.9,34.6,31.7c-0.2,13.1,2.1,24.2,3.8,35.9c-11.1-22.3-28-43.6-46.6-61.6
		c10.6,12.8,24.6,26.6,35,43.1c10.1,15.9,19.2,35.4,17.5,57.5c-0.8,10.3-4.1,18.2-10.2,23.8c3.6-7.1,7.5-13.6,7.9-24
		c0.9-23.5-10.7-42.6-22.7-60c-5.7-8.3-11.8-16-18.9-24.1c-7.3-8.4-16.9-19.6-30.5-20.9c-13-1.3-19,4.2-24.1,16.4
		c-6.2,15-9.6,43,4.6,73.9c29.3,55.3,86.7,93.3,153.2,95.3c52.1-1.4,0.1-102,43.7-139.2c6.1-5.2,12.9-10.7,8.3-19.6
		c-6.2-12-21-32.2-22.6-35.2l2.8-8.1l-8.6,16.5c-6.1,10.6-10.7,23.6-15.6,34.9c-3.4,17.3,0,47.7-2.7,68.2c-0.8,6-0.5,15.5-4.4,20.4
		c-5.9,7.5-15,6.7-23.3,8.6c-4.2,1-7.5,2.2-7.5,2.2c-1.6-3.5,0.9-4.1,4.3-5c11.9-3,11.2-6.2,6.5-6.6c-3.9-0.3-10.5,1.9-14,3.5
		c-4.2,2-7.5,3.1-9.4,3c-2.5,0-3.1-1.8-2.9-1.9c5.9-1,16-7.2,22.1-10.1c-0.1,0.3,13.4,2.7,19.3,0.8c2.8-3,3.2-11.5,1.6-27.7
		c-1.7-16.2-2.1-34.8-0.4-56.4l0,0l0,0c3.2-7.8,12.6-30.1,19.3-46.9c7.1-17.9,14-29.8,27.2-22.3c1.8,1,5.4-11.6,7.4-20.8
		c1.6-1.4-39.1,20.1-78.5,19.4c-11.2-0.2-23.4-2.7-34.7-7.3c2.9-0.1,5.9-0.1,8.9,0c10-0.6,20.9-1.2,31.9-2.3
		c10.8-1.9,21.6-4.3,31.8-7.4c15-5.9,28.7-12.9,40.5-24.2c0.1,0,0.1-0.1,0.1-0.1c0.6-0.6,1.1-1.1,1.7-1.6l0,0c0,0,0,0,0.1-0.1l0,0
		c0,0,0,0,0.1-0.1c0.4-0.4,0.8-0.8,1.1-1.2l0,0l0,0c0.2-0.2,0.3-0.4,0.5-0.5c-12.1,9.1-24.5,16-38.5,20.4
		c-28.3,8.9-72.3,12.2-97.9-3.3c-13.1-7.9-24.2-24.2-19.9-44.3c3.1-14.9,19.6-30.2,35.3-26.3c-11,2.2-21.1,12.9-21.5,26.3
		c-0.6,16.7,17.7,33.6,41.6,26.6c-8.7,3.5-18.2,4.5-27.4,1.7c-9.9-3.4-17.4-11.5-19.6-22.4c-0.9-5.9-0.2-11.9,2.6-17.2
		c-2.7,2.9-3.7,8.1-4,11.9c-0.5,11,4.9,20,12.8,26.8c29.2,24.9,121-51.9,151.1-22.1c4.9,4.9,5.1,14,8.4,17.3
		c3.8,3.7,9.6,0.7,6.1,7.1c-0.9,1.7-0.7,2.6-0.3,3.2c0.8,1.2,2.2,0.8,2,2.5c-0.4,3-2.8,1.9-2.9,3c0,0.4,1.7-0.8,2.4,1.3
		c0.5,1.6-0.4,2.3-1.1,3.3c-0.6,0.8-0.4,2.6,0,3.3c1.6,3,0,4.4-1.8,5.3c-3.2,1.6-8.1,0.1-11.5,1.8c-6.3,3.3-11.2,22.2-10.2,29.1
		c1.6,10.8,8,15.5,16.4,22.5c1.7,1.4,3.5,4.6-2.8,12.6c8.1,26.3-0.4,41.5,0.5,75c0.1,1.3,0.2,3.4,0.4,5.4
		c5.2,37.8,11.5,71.1,9.4,77.9c59.4-29.2,100.4-90.3,100.4-161C529.5,251.1,449.2,170.9,350.1,170.9z M302.3,291.4
		c30.5,1.9,60.3-3.7,85.9-19.6c-24.2,18.3-56.8,26.2-87.4,25.4c-15.9-0.4-30.6-3.4-43.6-13.7C272.4,287.3,287.3,290.5,302.3,291.4z
		 M334.7,248.8c-4.5-5.8-11.5-12.9-21.9-19.6c-24.4-15.7-39.9-7-39.9-7c6.1-2.6,16.8-1.4,22.9,0.4c14.6,4.3,28,15.5,37,27l-15.2,6.1
		c0,0-18.5-16.2-33.3-23.6c-14.9-7.4-24.3-6-24.3-6s0.4-1,1.1-2.5c2.9-5.4,9-9.7,14.3-12.1c30.4-13.8,67.3,16,76.6,30L334.7,248.8z
		 M499.1,316.3c-12.2,29.2-51.2,43.1-75.5,22.9c-8.4-7-14.7-11.6-16.2-22.3c-0.4-2.4,0-6.3,0.9-10.5c2.4,3.2,13,17,34.9,24.1
		c25.7,8.3,35.9-6.7,35.9-6.7c-4.3,5.1-13.7,7.5-19.4,7.8c-16.8,0.7-35.5-10.6-47.1-22.9c-1.7-1.8-2.9-3.4-3.7-4.7
		c1-3.6,2.3-7.3,3.8-10.2c22.6,17.6,45.2,33.4,64.8,23.7c9.3-4.6,15.9-12.8,17.3-23.7c0.4-3.9,0.2-9.1-1.9-12.5
		c1.9,5.7,1.5,11.8-0.4,17.4c-4,10.3-12.9,16.7-23.2,18.1c-9.5,0.9-18.6-1.9-26.6-7.1c22.2,11.7,43.1-1.3,45.5-17.8
		c3.2-22.3-21.6-42.4-38.5-25.4c-2.8,2.9-4.4,6.5-5.2,10.5c-1-0.6-0.8-3.3-0.7-4.3c1.3-9.5,9.4-15.2,18.1-16.8
		c2.2-0.2,4.4-0.3,6.8-0.1c15.5,2.2,26,13.8,31.1,28.5c0.9,3.4,1.6,6.8,2,10.4c0.2,3.6,0.1,7.3-0.2,10.9
		C501,309.1,500.5,312.9,499.1,316.3z"/>
	<g>
		<path class="st0" d="M123.5,523.4l30.9-26.6c2.4-2.1,4.8-3.4,7.3-4.1s4.9-0.8,7.4-0.3c2.4,0.5,4.8,1.5,7.2,3.1
			c2.3,1.6,4.6,3.6,6.8,6.1c1.7,2,3.3,4.2,4.8,6.6c1.5,2.5,2.7,5.1,3.5,7.9l-6.1,4.1c-1.2-3-2.4-5.4-3.6-7.2
			c-1.1-1.8-2.2-3.4-3.3-4.6c-1.4-1.6-2.9-3-4.4-4c-1.6-1.1-3.1-1.8-4.7-2.1c-1.6-0.3-3.2-0.3-4.9,0.2s-3.3,1.4-4.9,2.8L130,530.7
			L123.5,523.4z"/>
		<path class="st0" d="M84.7,456.7l7.1-3.6l19.3,37.5l14.9-7.7l-19.1-37.1l6.7-3.5l19.1,37.1l16.2-8.4l-19.4-37.7l7.1-3.6l23.8,46.3
			l-52,26.8L84.7,456.7z"/>
		<path class="st0" d="M66.1,382.9l7.8-1.6l8.2,39.2l18.2-3.8l-8.1-38.8l7.3-1.5l8.1,38.8l23.9-5l2,9.4l-57.2,12L66.1,382.9z"/>
		<path class="st0" d="M67.2,309l7.9,0.4l-2,40l18.6,0.9l2-39.6l7.5,0.4l-2,39.6l24.4,1.2l-0.5,9.6l-58.4-3L67.2,309z"/>
		<path class="st0" d="M97.2,219.3c1.6-3.3,3.4-6.1,5.4-8.1c2-2.1,4-3.6,6.1-4.5s4.1-1.3,6.2-1.3c2.1,0.1,4,0.6,5.9,1.5
			c2.7,1.3,4.6,3.1,5.6,5.3s1.4,4.6,1.3,7.2c1.2-1.1,2.5-2,3.8-2.8c1.4-0.8,2.8-1.3,4.4-1.7c1.5-0.4,3.1-0.5,4.7-0.3
			c1.6,0.1,3.1,0.6,4.7,1.4c2,1,3.7,2.3,5.1,4.1c1.4,1.8,2.4,3.8,3,6.2s0.7,5,0.3,7.8c-0.4,2.9-1.3,5.8-2.8,9l-16.1,33l-52.6-25.6
			L97.2,219.3z M108.6,252.5l11.3-23.2c1.6-3.2,2.1-6,1.5-8.3c-0.5-2.4-1.8-4-4-5.1c-1.1-0.5-2.2-0.8-3.4-0.8
			c-1.2,0-2.4,0.3-3.5,0.9c-1.2,0.6-2.3,1.5-3.4,2.7s-2.2,2.8-3.1,4.7l-10.6,21.7L108.6,252.5z M131.7,263.7l11.3-23.2
			c0.9-1.9,1.5-3.7,1.8-5.5c0.2-1.7,0.2-3.3-0.1-4.7s-0.9-2.7-1.7-3.8s-1.9-1.9-3.1-2.5c-1.2-0.6-2.5-0.9-3.9-0.9s-2.7,0.3-4,0.9
			c-1.3,0.6-2.5,1.5-3.7,2.7s-2.1,2.7-3,4.4L113.7,255L131.7,263.7z"/>
		<path class="st0" d="M144,153.8c2.4-2.6,4.9-4.6,7.3-5.9c2.5-1.3,4.8-2.1,7.1-2.3s4.4,0.1,6.4,0.8c2,0.8,3.9,1.9,5.5,3.4
			c1.3,1.2,2.3,2.5,3.2,4s1.5,3.1,1.8,4.8s0.3,3.5,0,5.4s-1,3.9-2,5.9l33.4,2.1l-7.4,8l-32-2.3l-13.7,14.9l18.4,17l-6.5,7.1
			l-43-39.7L144,153.8z M148.8,188.5l14-15.2c1.5-1.6,2.6-3.2,3.4-4.8c0.7-1.5,1.1-3,1.1-4.3c0-1.4-0.2-2.6-0.7-3.7
			c-0.5-1.1-1.2-2.1-2.2-3c-0.9-0.9-2-1.5-3.2-1.9s-2.4-0.6-3.8-0.4c-1.3,0.1-2.8,0.6-4.2,1.5c-1.5,0.8-3,2.1-4.5,3.7l-14,15.2
			L148.8,188.5z"/>
		<path class="st0" d="M211.6,100.6c5.2-2.9,10.2-4.7,15.1-5.5c4.8-0.8,9.3-0.7,13.4,0.2c4.1,0.9,7.7,2.6,10.9,4.9
			c3.2,2.4,5.7,5.2,7.6,8.6c1.9,3.3,2.9,7,3.3,10.9c0.3,3.9-0.2,7.9-1.6,11.9c-1.4,4-3.7,7.8-6.9,11.5c-3.2,3.7-7.4,7-12.6,9.9
			c-5.3,2.9-10.4,4.8-15.2,5.5s-9.3,0.6-13.4-0.3c-4.1-0.9-7.7-2.6-10.9-5c-3.1-2.4-5.6-5.2-7.5-8.5s-3-7-3.3-10.9
			c-0.3-4,0.2-7.9,1.6-11.9c1.4-3.9,3.7-7.8,6.9-11.5C202.2,106.8,206.4,103.5,211.6,100.6z M215.5,107.5c-3.7,2.1-6.7,4.4-9.2,7.1
			c-2.4,2.6-4.2,5.4-5.3,8.3s-1.6,5.8-1.4,8.8c0.2,3,1,5.8,2.5,8.5s3.4,4.9,5.8,6.6c2.4,1.7,5.1,2.9,8.2,3.5c3,0.6,6.3,0.6,9.8-0.1
			c3.5-0.6,7.1-2,10.8-4s6.7-4.4,9.1-7c2.4-2.6,4.1-5.4,5.2-8.3c1.1-2.9,1.6-5.8,1.4-8.8c-0.2-3-1-5.8-2.5-8.5s-3.5-4.9-5.9-6.7
			c-2.4-1.7-5.2-2.9-8.2-3.5s-6.3-0.6-9.8,0.1C222.7,104.1,219.2,105.5,215.5,107.5z"/>
		<path class="st0" d="M275.5,72.1l22.7,39l19.3-44.6l1.3-0.1l27.1,39.2l14.6-43.2l9.5-1.1l-20.2,61.9l-1.4,0.2l-28.9-42L299.2,129
			l-1.3,0.1l-32.3-56L275.5,72.1z"/>
		<path class="st0" d="M398.6,67.1l40.3,55.4l11.4-39.9l9,2.6l-16.2,57l-1.2-0.4l-40.4-55.5l-11.4,40l-9-2.6l16.2-57L398.6,67.1z"/>
		<path class="st0" d="M519.4,119.9l2.8,35.2l35.4-1.5l8.2,7.2l-44,2l-18.4,20.9l-7.2-6.4l18.4-20.8l-3.6-44.1L519.4,119.9z"/>
		<path class="st0" d="M591.8,198.3l-30.9,61.9l-5.7-9l8-15.7l-18.3-28.9l-17.6,0.5l-5.5-8.7L591,197L591.8,198.3z M552,206.4
			l14.4,22.7l12.1-23.5L552,206.4z"/>
		<path class="st0" d="M619,308.9c1.1-3.8,1.8-7.7,2.1-11.8c0.3-4.1-0.2-8.5-1.4-13.2c-1-3.8-2.4-7.2-4.2-10.3
			c-1.8-3-3.9-5.5-6.3-7.5c-2.4-2-5.1-3.3-8.1-4s-6.2-0.6-9.6,0.3c-3.5,0.9-6.3,2.4-8.6,4.5s-4,4.6-5.2,7.6
			c-1.2,2.9-1.8,6.1-1.9,9.7c-0.1,3.5,0.3,7.1,1.3,10.8c0.6,2.4,1.5,4.7,2.5,6.9c1,2.2,2.2,4.1,3.4,5.9c1.3,1.8,2.7,3.3,4.2,4.6
			c1.5,1.3,3.2,2.2,4.9,2.9l-3.1,8.4c-2.4-1-4.6-2.3-6.7-4c-2.1-1.7-3.9-3.7-5.6-6.1c-1.7-2.3-3.1-4.8-4.3-7.6
			c-1.2-2.8-2.2-5.6-3-8.6c-1.4-5.3-1.9-10.3-1.7-15.2c0.2-4.9,1.2-9.3,2.9-13.2c1.7-3.9,4.1-7.3,7.3-10.1c3.1-2.8,6.9-4.8,11.4-5.9
			c4.4-1.2,8.7-1.3,12.7-0.3c4,0.9,7.7,2.7,11,5.4c3.3,2.6,6.2,6,8.7,10.2s4.5,8.9,5.8,14.2c1.5,5.8,2.2,11.3,2,16.5
			s-1,9.9-2.4,14.1L619,308.9z"/>
		<path class="st0" d="M635.4,348l-24.5-1.5l-2.4,39.2l24.5,1.5l-0.6,9.6l-58.4-3.5l0.6-9.6l26,1.6L603,346l-25.9-1.6l0.6-9.6
			l58.4,3.5L635.4,348z"/>
		<path class="st0" d="M608,474.4l-7.5-2.7l8.2-22.7l-47.5-17.2l3.3-9.1l47.5,17.2l8.2-22.6l7.5,2.7L608,474.4z"/>
		<path class="st0" d="M558,528.4c3.6-2.3,7-5.1,10.4-8.1c3.4-3.1,6.3-6.4,8.9-9.9c3.1-4.3,4.8-8.1,5.4-11.4
			c0.5-3.3-0.4-5.9-2.9-7.7c-1.8-1.3-3.6-1.5-5.6-0.8c-1.9,0.8-4.3,2.3-7,4.7c-1.2,1-2.5,2.2-3.9,3.6s-2.9,2.8-4.5,4.3
			c-1.5,1.5-3.1,2.9-4.7,4.3c-1.6,1.4-3.1,2.7-4.6,3.9c-1.8,1.4-3.6,2.6-5.2,3.6c-1.6,1-3.2,1.6-4.8,1.9c-1.6,0.3-3.1,0.3-4.5,0
			c-1.5-0.3-3-1-4.5-2.1c-4.4-3.1-6.4-7.5-6.1-13c0.4-5.5,3.2-12,8.4-19.3c1.2-1.6,2.6-3.4,4.2-5.4c1.6-2,3.4-4,5.3-6
			c1.9-2,3.9-3.9,6.1-5.7c2.1-1.8,4.3-3.3,6.5-4.6l4.8,5.9c-2,1.2-4,2.7-6.1,4.4c-2,1.7-3.9,3.5-5.7,5.3s-3.5,3.7-5.1,5.5
			c-1.6,1.9-2.9,3.6-4.1,5.2c-3.4,4.8-5.3,8.9-5.7,12.2c-0.4,3.3,0.7,5.9,3.2,7.6c1.7,1.2,3.6,1.6,5.4,1.1c1.9-0.5,4.2-2,6.9-4.4
			c1-0.9,2.1-1.9,3.4-3.2c1.3-1.3,2.7-2.6,4.2-4.1c1.5-1.4,3-2.9,4.5-4.3c1.5-1.5,3.1-2.8,4.5-4c1.8-1.5,3.6-2.8,5.4-3.9
			c1.8-1.1,3.5-1.8,5.2-2.3c1.7-0.4,3.4-0.5,5-0.2c1.7,0.3,3.3,1,4.9,2.1c2.2,1.5,3.7,3.5,4.5,5.7c0.9,2.3,1.1,4.8,0.8,7.5
			s-1.2,5.7-2.6,8.8c-1.4,3.2-3.3,6.4-5.7,9.7c-2.9,4-6,7.6-9.4,10.8s-7,5.9-10.7,8.1L558,528.4z"/>
		<path class="st1" d="M244.3,573.8c-1-1.6-2.1-3.2-3.5-4.6c-1.3-1.5-3.1-2.8-5.1-3.9c-1.7-0.9-3.4-1.6-5-1.9
			c-1.7-0.4-3.3-0.5-4.7-0.3c-1.5,0.2-2.9,0.7-4.1,1.5c-1.3,0.8-2.3,2-3.1,3.5s-1.2,3-1.3,4.6c0,1.5,0.3,3,0.9,4.4
			c0.6,1.4,1.6,2.7,2.8,3.9s2.6,2.3,4.3,3.1c1.1,0.6,2.2,1.1,3.3,1.4c1.1,0.4,2.2,0.6,3.2,0.7c1.1,0.1,2.1,0.1,3,0
			c1-0.1,1.9-0.4,2.7-0.8l1.9,3.9c-1.1,0.5-2.4,0.9-3.7,1c-1.3,0.2-2.6,0.1-4,0c-1.4-0.2-2.7-0.5-4.1-1c-1.4-0.5-2.7-1.1-4-1.8
			c-2.3-1.3-4.3-2.7-6-4.4c-1.6-1.7-2.9-3.5-3.7-5.4s-1.2-3.9-1.2-5.9c0.1-2,0.6-4,1.7-6c1.1-2,2.4-3.5,4.1-4.6
			c1.7-1.1,3.5-1.8,5.6-2.1c2-0.3,4.2-0.2,6.5,0.3s4.6,1.4,7,2.7c2.6,1.4,4.7,3,6.5,4.8s3.2,3.6,4.2,5.6L244.3,573.8z"/>
		<path class="st1" d="M266.8,575.1l6.2,33.1l-4.9-1.8l-1.5-8.4l-15.6-5.8l-6.6,5.4l-4.7-1.7l26.4-20.9L266.8,575.1z M253.8,589.9
			l12.3,4.6l-2.2-12.7L253.8,589.9z"/>
		<path class="st1" d="M288.9,582.5l-5.7,23.9l17.8,4.2l-0.9,3.8l-22.3-5.3l6.6-27.7L288.9,582.5z"/>
		<path class="st1" d="M314,587.6l-4.5,28.1l-4.6-0.7l4.5-28.1L314,587.6z"/>
		<path class="st1" d="M343.3,590.6l-0.3,3.9l-19.4-1.6l-0.7,9l19.2,1.6l-0.3,3.6l-19.2-1.6l-1,11.9l-4.7-0.4l2.3-28.3L343.3,590.6z
			"/>
		<path class="st1" d="M362.8,589.6c2.9-0.2,5.5,0.1,7.8,0.8s4.2,1.7,5.8,3c1.6,1.3,2.8,2.8,3.7,4.5c0.9,1.7,1.4,3.5,1.5,5.4
			s-0.2,3.7-0.9,5.5c-0.7,1.8-1.8,3.4-3.2,4.8c-1.5,1.4-3.3,2.6-5.5,3.6c-2.2,0.9-4.7,1.5-7.6,1.6c-2.9,0.2-5.6-0.1-7.8-0.8
			c-2.3-0.7-4.2-1.7-5.8-3c-1.6-1.3-2.8-2.8-3.7-4.5c-0.9-1.7-1.3-3.5-1.4-5.3c-0.1-1.9,0.2-3.7,0.9-5.5c0.7-1.8,1.8-3.4,3.2-4.8
			c1.5-1.4,3.3-2.6,5.5-3.5C357.4,590.3,359.9,589.8,362.8,589.6z M363,593.5c-2.1,0.1-3.9,0.5-5.5,1.1s-3,1.5-4.1,2.5
			s-1.9,2.2-2.5,3.6c-0.6,1.3-0.8,2.8-0.7,4.2c0.1,1.5,0.5,2.9,1.1,4.1c0.7,1.3,1.6,2.4,2.8,3.3c1.2,0.9,2.6,1.6,4.3,2.1
			c1.7,0.5,3.5,0.7,5.6,0.5c2-0.1,3.8-0.5,5.5-1.1c1.6-0.6,3-1.5,4.1-2.5s1.9-2.2,2.5-3.5s0.8-2.8,0.7-4.3c-0.1-1.5-0.5-2.9-1.2-4.2
			s-1.6-2.4-2.9-3.3c-1.2-0.9-2.6-1.6-4.3-2C366.9,593.5,365.1,593.4,363,593.5z"/>
		<path class="st1" d="M399.2,585.3c1.7-0.3,3.2-0.4,4.6-0.2c1.3,0.2,2.5,0.6,3.4,1.1c0.9,0.6,1.7,1.3,2.3,2.2
			c0.6,0.9,1,1.8,1.2,2.9c0.2,0.8,0.2,1.7,0.1,2.5s-0.3,1.6-0.7,2.4c-0.4,0.8-0.9,1.5-1.6,2.1c-0.7,0.7-1.5,1.2-2.5,1.7l12.5,10.4
			l-5.2,1l-11.9-10.1l-9.7,1.9l2.4,12l-4.6,0.9l-5.5-27.9L399.2,585.3z M391.1,600.3l9.8-1.9c1.1-0.2,2-0.5,2.7-0.9s1.3-0.9,1.7-1.4
			c0.4-0.5,0.7-1.1,0.8-1.7c0.1-0.6,0.1-1.2,0-1.8s-0.3-1.2-0.7-1.7c-0.3-0.5-0.8-0.9-1.4-1.2s-1.3-0.5-2.1-0.6
			c-0.8-0.1-1.8,0-2.8,0.2l-9.8,1.9L391.1,600.3z"/>
		<path class="st1" d="M414.8,581.6l31.5,10.8l-6.6-19.1l4.3-1.5l9.5,27.2l-0.6,0.2l-31.6-10.8l6.6,19.1l-4.3,1.5l-9.5-27.2
			L414.8,581.6z"/>
		<path class="st1" d="M452.6,567.4l11.9,25.8l-4.3,2l-11.9-25.8L452.6,567.4z"/>
		<path class="st1" d="M470,557.8l29.4,16.3l-4.5,2.6l-7.4-4.2l-14.4,8.3l-0.1,8.5l-4.3,2.5l0.7-33.6L470,557.8z M473.2,577.4
			l11.3-6.5l-11.2-6.3L473.2,577.4z"/>
	</g>
	<g class="st2">
		<path class="st3" d="M203.3,542.7l0.5,28.6l26.7-10.7l0.5,0.3l-16.8,25.5l-3.6-2.4l9.9-15l-20.5,8.4l-0.5-0.3l-0.1-21.7l-9.7,14.8
			l-3.6-2.4l16.8-25.5L203.3,542.7z"/>
		<path class="st3" d="M241.9,566.5l-13.7,26.9l-4.1-2.1l13.7-26.9L241.9,566.5z"/>
		<path class="st3" d="M259.6,574.5c2.8,1.1,5,2.5,6.7,4c1.7,1.6,2.8,3.3,3.5,5.1s1,3.6,0.9,5.5s-0.5,3.7-1.2,5.4s-1.6,3.3-2.8,4.7
			c-1.2,1.5-2.7,2.6-4.4,3.5c-1.7,0.9-3.8,1.3-6,1.4c-2.3,0.1-4.9-0.5-7.7-1.6l-10.9-4.3l11.1-28.1L259.6,574.5z M243.4,596.1
			l6.8,2.7c2,0.8,3.8,1.2,5.4,1.2s3-0.3,4.3-0.8c1.2-0.6,2.3-1.4,3.2-2.5c0.9-1.1,1.6-2.3,2.2-3.8c0.6-1.4,0.9-2.8,1-4.2
			s-0.1-2.7-0.7-4c-0.5-1.3-1.4-2.4-2.6-3.5s-2.8-2-4.8-2.8l-6.8-2.7L243.4,596.1z"/>
		<path class="st3" d="M286.1,602.2l-0.8,2.7l-12.1-3.4l0.8-2.7L286.1,602.2z"/>
		<path class="st3" d="M308.9,588.1l10.4,32.9l-4.9-0.9l-2.5-8.4l-14.6-2.6l-5.2,7l-4.7-0.8l21-27.4L308.9,588.1z M299.3,606.4
			l11.5,2L307,596L299.3,606.4z"/>
		<path class="st3" d="M350.5,592.4l-0.2,4.1l-10.6-0.6l-1.4,26l-4.6-0.2l1.4-26l-10.6-0.6l0.2-4.1L350.5,592.4z"/>
		<path class="st3" d="M360.3,592l1.5,26l16.5-0.9l0.2,4.1l-21,1.2l-1.7-30.1L360.3,592z"/>
		<path class="st3" d="M395.2,587.7l21.2,27.2l-4.9,0.9l-5.3-7l-14.6,2.7l-2.5,8.4l-4.7,0.9l10.2-32.9L395.2,587.7z M392.6,608.1
			l11.5-2.1l-7.8-10.3L392.6,608.1z"/>
		<path class="st3" d="M415.7,583.4l29.5,12.8l-6.8-20.1l4.2-1.4l9.8,29l-0.6,0.2L422.4,591l6.8,20.1l-4.2,1.4l-9.8-29L415.7,583.4z
			"/>
		<path class="st3" d="M470.5,561.2l1.8,3.7l-9.5,4.7l11.6,23.4l-4.1,2l-11.6-23.4l-9.5,4.7l-1.8-3.7L470.5,561.2z"/>
		<path class="st3" d="M479,555.8l15.6,25.8l-3.9,2.4l-15.6-25.8L479,555.8z"/>
		<path class="st3" d="M510.9,542.2c-1.8,0-3.5,0.3-5.3,0.8s-3.5,1.4-5.2,2.6c-1.4,1-2.5,2.2-3.4,3.5s-1.5,2.6-1.8,4.1
			c-0.3,1.4-0.3,2.9,0,4.4s1,3,2.1,4.4c1.1,1.5,2.3,2.6,3.7,3.4c1.4,0.8,2.8,1.2,4.2,1.3c1.5,0.1,2.9-0.1,4.4-0.5
			c1.5-0.5,2.9-1.2,4.3-2.3c0.8-0.6,1.6-1.3,2.3-2.1s1.3-1.6,1.7-2.4c0.5-0.9,0.8-1.7,1-2.7c0.2-0.9,0.3-1.8,0.2-2.7h4.3
			c0.1,1.3,0,2.5-0.3,3.7s-0.8,2.4-1.4,3.5c-0.6,1.1-1.4,2.2-2.3,3.2c-0.9,1-1.9,1.9-3,2.7c-1.9,1.4-4,2.5-6.1,3.1s-4.2,0.9-6.2,0.7
			s-4-0.8-5.8-1.8s-3.5-2.5-4.9-4.4s-2.3-3.9-2.8-5.9c-0.4-2-0.4-4,0-6s1.3-3.8,2.5-5.7c1.2-1.8,2.8-3.4,4.8-4.9
			c2.2-1.6,4.4-2.8,6.6-3.5s4.4-1,6.5-1L510.9,542.2z"/>
	</g>
</g>
</svg>
